<?xml version="1.0" encoding="UTF-8" standalone="no"?>
<!DOCTYPE svg PUBLIC "-//W3C//DTD SVG 1.1//EN"
 "http://www.w3.org/Graphics/SVG/1.1/DTD/svg11.dtd">
<!-- Generated by graphviz version 3.0.0 (20220413.0242)
 -->
<!-- Title: inheritancecccfae3439 Pages: 1 -->
<svg width="576pt" height="105pt"
 viewBox="0.00 0.00 576.00 104.85" xmlns="http://www.w3.org/2000/svg" xmlns:xlink="http://www.w3.org/1999/xlink">
<g id="graph0" class="graph" transform="scale(0.672112 0.672112) rotate(0) translate(4 152)">
<title>inheritancecccfae3439</title>
<!-- ArgParseAttribute -->
<g id="node1" class="node">
<title>ArgParseAttribute</title>
<g id="a_node1"><a xlink:href="../pyAttributes.ArgParseAttributes.html#pyAttributes.ArgParseAttributes.ArgParseAttribute" xlink:title="Base&#45;class for all attributes to describe a :mod:`argparse`&#45;base command line" target="_top">
<polygon fill="white" stroke="black" stroke-width="0.5" points="144,-74 0,-74 0,-55 144,-55 144,-74"/>
<text text-anchor="middle" x="72" y="-62" font-family="Vera Sans, DejaVu Sans, Liberation Sans, Arial, Helvetica, sans" font-size="10.00">ArgParseAttribute</text>
</a>
</g>
</g>
<!-- ArgumentAttribute -->
<g id="node2" class="node">
<title>ArgumentAttribute</title>
<g id="a_node2"><a xlink:href="../pyAttributes.ArgParseAttributes.html#pyAttributes.ArgParseAttributes.ArgumentAttribute" xlink:title="Base&#45;class for all attributes storing arguments." target="_top">
<polygon fill="white" stroke="black" stroke-width="0.5" points="339,-130 195,-130 195,-111 339,-111 339,-130"/>
<text text-anchor="middle" x="267" y="-118" font-family="Vera Sans, DejaVu Sans, Liberation Sans, Arial, Helvetica, sans" font-size="10.00">ArgumentAttribute</text>
</a>
</g>
</g>
<!-- ArgParseAttribute&#45;&gt;ArgumentAttribute -->
<g id="edge1" class="edge">
<title>ArgParseAttribute&#45;&gt;ArgumentAttribute</title>
<path fill="none" stroke="black" stroke-width="0.5" d="M96.92,-74.04C118.41,-82.36 150.96,-94.35 180,-102.5 189.59,-105.19 199.89,-107.68 209.9,-109.9"/>
<polygon fill="black" stroke="black" stroke-width="0.5" points="209.53,-111.61 214.79,-110.97 210.28,-108.19 209.53,-111.61"/>
</g>
<!-- CommandAttribute -->
<g id="node3" class="node">
<title>CommandAttribute</title>
<g id="a_node3"><a xlink:href="../pyAttributes.ArgParseAttributes.html#pyAttributes.ArgParseAttributes.CommandAttribute" xlink:title="Marks a handler method as responsible for the given &#39;command&#39;. This constructs" target="_top">
<polygon fill="white" stroke="black" stroke-width="0.5" points="335.5,-93 198.5,-93 198.5,-74 335.5,-74 335.5,-93"/>
<text text-anchor="middle" x="267" y="-81" font-family="Vera Sans, DejaVu Sans, Liberation Sans, Arial, Helvetica, sans" font-size="10.00">CommandAttribute</text>
</a>
</g>
</g>
<!-- ArgParseAttribute&#45;&gt;CommandAttribute -->
<g id="edge2" class="edge">
<title>ArgParseAttribute&#45;&gt;CommandAttribute</title>
<path fill="none" stroke="black" stroke-width="0.5" d="M144.04,-71.49C159.98,-73.06 176.91,-74.73 192.92,-76.31"/>
<polygon fill="black" stroke="black" stroke-width="0.5" points="193.17,-78.09 198.32,-76.84 193.51,-74.61 193.17,-78.09"/>
</g>
<!-- CommandGroupAttribute -->
<g id="node4" class="node">
<title>CommandGroupAttribute</title>
<g id="a_node4"><a xlink:href="../pyAttributes.ArgParseAttributes.html#pyAttributes.ArgParseAttributes.CommandGroupAttribute" xlink:title="*Experimental* attribute to group sub&#45;commands in groups for better readability" target="_top">
<polygon fill="white" stroke="black" stroke-width="0.5" points="354,-56 180,-56 180,-37 354,-37 354,-56"/>
<text text-anchor="middle" x="267" y="-44" font-family="Vera Sans, DejaVu Sans, Liberation Sans, Arial, Helvetica, sans" font-size="10.00">CommandGroupAttribute</text>
</a>
</g>
</g>
<!-- ArgParseAttribute&#45;&gt;CommandGroupAttribute -->
<g id="edge3" class="edge">
<title>ArgParseAttribute&#45;&gt;CommandGroupAttribute</title>
<path fill="none" stroke="black" stroke-width="0.5" d="M144.04,-57.87C154.02,-56.94 164.39,-55.98 174.67,-55.02"/>
<polygon fill="black" stroke="black" stroke-width="0.5" points="174.9,-56.75 179.72,-54.55 174.57,-53.27 174.9,-56.75"/>
</g>
<!-- DefaultAttribute -->
<g id="node8" class="node">
<title>DefaultAttribute</title>
<g id="a_node8"><a xlink:href="../pyAttributes.ArgParseAttributes.html#pyAttributes.ArgParseAttributes.DefaultAttribute" xlink:title="Marks a handler method is *default* handler. This method is called if no" target="_top">
<polygon fill="white" stroke="black" stroke-width="0.5" points="335.5,-19 198.5,-19 198.5,0 335.5,0 335.5,-19"/>
<text text-anchor="middle" x="267" y="-7" font-family="Vera Sans, DejaVu Sans, Liberation Sans, Arial, Helvetica, sans" font-size="10.00">DefaultAttribute</text>
</a>
</g>
</g>
<!-- ArgParseAttribute&#45;&gt;DefaultAttribute -->
<g id="edge6" class="edge">
<title>ArgParseAttribute&#45;&gt;DefaultAttribute</title>
<path fill="none" stroke="black" stroke-width="0.5" d="M98.71,-54.99C120.23,-47.23 151.86,-36.32 180,-28.5 190.73,-25.52 202.32,-22.7 213.41,-20.18"/>
<polygon fill="black" stroke="black" stroke-width="0.5" points="213.96,-21.85 218.46,-19.05 213.2,-18.43 213.96,-21.85"/>
</g>
<!-- CommonArgumentAttribute -->
<g id="node5" class="node">
<title>CommonArgumentAttribute</title>
<g id="a_node5"><a xlink:href="../pyAttributes.ArgParseAttributes.html#pyAttributes.ArgParseAttributes.CommonArgumentAttribute" xlink:title="CommonArgumentAttribute" target="_top">
<polygon fill="white" stroke="black" stroke-width="0.5" points="579,-148 390,-148 390,-129 579,-129 579,-148"/>
<text text-anchor="middle" x="484.5" y="-136" font-family="Vera Sans, DejaVu Sans, Liberation Sans, Arial, Helvetica, sans" font-size="10.00">CommonArgumentAttribute</text>
</a>
</g>
</g>
<!-- ArgumentAttribute&#45;&gt;CommonArgumentAttribute -->
<g id="edge4" class="edge">
<title>ArgumentAttribute&#45;&gt;CommonArgumentAttribute</title>
<path fill="none" stroke="black" stroke-width="0.5" d="M339.16,-126.44C353.7,-127.66 369.25,-128.96 384.56,-130.24"/>
<polygon fill="black" stroke="black" stroke-width="0.5" points="384.61,-132 389.74,-130.67 384.9,-128.51 384.61,-132"/>
</g>
<!-- SwitchArgumentAttribute -->
<g id="node7" class="node">
<title>SwitchArgumentAttribute</title>
<g id="a_node7"><a xlink:href="../pyAttributes.ArgParseAttributes.html#pyAttributes.ArgParseAttributes.SwitchArgumentAttribute" xlink:title="Defines a switch argument like ``&#45;&#45;help``." target="_top">
<polygon fill="white" stroke="black" stroke-width="0.5" points="579,-111 390,-111 390,-92 579,-92 579,-111"/>
<text text-anchor="middle" x="484.5" y="-99" font-family="Vera Sans, DejaVu Sans, Liberation Sans, Arial, Helvetica, sans" font-size="10.00">SwitchArgumentAttribute</text>
</a>
</g>
</g>
<!-- ArgumentAttribute&#45;&gt;SwitchArgumentAttribute -->
<g id="edge7" class="edge">
<title>ArgumentAttribute&#45;&gt;SwitchArgumentAttribute</title>
<path fill="none" stroke="black" stroke-width="0.5" d="M339.16,-114.23C353.7,-112.94 369.25,-111.57 384.56,-110.22"/>
<polygon fill="black" stroke="black" stroke-width="0.5" points="384.91,-111.95 389.74,-109.77 384.6,-108.46 384.91,-111.95"/>
</g>
<!-- CommonSwitchArgumentAttribute -->
<g id="node6" class="node">
<title>CommonSwitchArgumentAttribute</title>
<g id="a_node6"><a xlink:href="../pyAttributes.ArgParseAttributes.html#pyAttributes.ArgParseAttributes.CommonSwitchArgumentAttribute" xlink:title="CommonSwitchArgumentAttribute" target="_top">
<polygon fill="white" stroke="black" stroke-width="0.5" points="849,-111 615,-111 615,-92 849,-92 849,-111"/>
<text text-anchor="middle" x="732" y="-99" font-family="Vera Sans, DejaVu Sans, Liberation Sans, Arial, Helvetica, sans" font-size="10.00">CommonSwitchArgumentAttribute</text>
</a>
</g>
</g>
<!-- SwitchArgumentAttribute&#45;&gt;CommonSwitchArgumentAttribute -->
<g id="edge5" class="edge">
<title>SwitchArgumentAttribute&#45;&gt;CommonSwitchArgumentAttribute</title>
<path fill="none" stroke="black" stroke-width="0.5" d="M579.01,-101.5C589.03,-101.5 599.32,-101.5 609.6,-101.5"/>
<polygon fill="black" stroke="black" stroke-width="0.5" points="609.64,-103.25 614.64,-101.5 609.64,-99.75 609.64,-103.25"/>
</g>
</g>
</svg>
